<svg xmlns="http://www.w3.org/2000/svg" viewBox="0 0 800 1200" width="100%" height="100%">
  <defs>
    <linearGradient id="bgGrad" x1="0%" y1="0%" x2="100%" y2="100%">
      <stop offset="0%" stop-color="#07080a" />
      <stop offset="40%" stop-color="#141113" />
      <stop offset="70%" stop-color="#1b0e12" />
      <stop offset="100%" stop-color="#090507" />
    </linearGradient>
    <radialGradient id="spotlight" cx="50%" cy="38%" r="55%">
      <stop offset="0%" stop-color="#ff3b30" stop-opacity="0.32" />
      <stop offset="45%" stop-color="#d4af37" stop-opacity="0.1" />
      <stop offset="100%" stop-color="#000000" stop-opacity="0" />
    </radialGradient>
    <radialGradient id="centerGlow" cx="50%" cy="50%" r="40%">
      <stop offset="0%" stop-color="#e5b842" stop-opacity="0.25" />
      <stop offset="100%" stop-color="#000000" stop-opacity="0" />
    </radialGradient>
    <pattern id="filmGrid" width="40" height="40" patternUnits="userSpaceOnUse">
      <rect width="40" height="40" fill="none" stroke="#ffffff" stroke-width="0.3" stroke-opacity="0.04" />
    </pattern>
    <filter id="noiseFilter">
      <feTurbulence type="fractalNoise" baseFrequency="0.8" numOctaves="3" stitchTiles="stitch" />
      <feColorMatrix type="matrix" values="1 0 0 0 0  0 1 0 0 0  0 0 1 0 0  0 0 0 0.08 0" />
    </filter>
  </defs>

  <!-- Background Base -->
  <rect width="800" height="1200" fill="url(#bgGrad)" />
  <rect width="800" height="1200" fill="url(#spotlight)" />
  <rect width="800" height="1200" fill="url(#centerGlow)" />
  <rect width="800" height="1200" fill="url(#filmGrid)" />
  <rect width="800" height="1200" filter="url(#noiseFilter)" />

  <!-- Outer Film Border Frame -->
  <rect x="35" y="35" width="730" height="1130" fill="none" stroke="#d4af37" stroke-width="1.5" stroke-opacity="0.35" />
  <rect x="45" y="45" width="710" height="1110" fill="none" stroke="#ffffff" stroke-width="0.5" stroke-opacity="0.15" />

  <!-- Corner Marks -->
  <path d="M 30 55 L 30 30 L 55 30" stroke="#d4af37" stroke-width="3" fill="none" />
  <path d="M 770 55 L 770 30 L 745 30" stroke="#d4af37" stroke-width="3" fill="none" />
  <path d="M 30 1145 L 30 1170 L 55 1170" stroke="#d4af37" stroke-width="3" fill="none" />
  <path d="M 770 1145 L 770 1170 L 745 1170" stroke="#d4af37" stroke-width="3" fill="none" />

  <!-- Top Billing Header -->
  <g id="topBilling">
    <text x="400" y="110" font-family="'Cinzel', 'Playfair Display', serif" font-size="13" font-weight="700" letter-spacing="8" fill="#d4af37" text-anchor="middle">A BIGMAKERS ORIGINAL PRESENTATION</text>
    <line x1="280" y1="130" x2="520" y2="130" stroke="#d4af37" stroke-width="1" stroke-opacity="0.4" />
    <text x="400" y="155" font-family="'Inter', sans-serif" font-size="11" font-weight="600" letter-spacing="6" fill="#a1a1aa" text-anchor="middle">WRITTEN BY &amp; STARRING SUJASH</text>
  </g>

  <!-- Visual Central Graphic / Dramatic Silhouette Motif -->
  <g id="centerVisual" transform="translate(400, 480)">
    <!-- Cinematic circular aperture rings -->
    <circle cx="0" cy="0" r="190" fill="none" stroke="#e5b842" stroke-width="1" stroke-opacity="0.15" stroke-dasharray="6 4" />
    <circle cx="0" cy="0" r="150" fill="none" stroke="#ff4d4d" stroke-width="1.5" stroke-opacity="0.2" />
    <circle cx="0" cy="0" r="110" fill="#130b0f" stroke="#d4af37" stroke-width="2" stroke-opacity="0.4" />

    <!-- Stylized Silhouette of Figures / Gang Confrontation -->
    <path d="M -70 80 L -60 10 L -45 -40 L -30 -40 L -15 10 L -10 80 Z" fill="#000000" opacity="0.85" />
    <circle cx="-38" cy="-55" r="14" fill="#000000" opacity="0.85" />

    <path d="M -25 80 L -15 -10 L 0 -65 L 15 -10 L 25 80 Z" fill="#050505" opacity="0.95" />
    <circle cx="0" cy="-80" r="17" fill="#050505" opacity="0.95" />

    <path d="M 10 80 L 15 10 L 30 -40 L 45 -40 L 60 10 L 70 80 Z" fill="#000000" opacity="0.85" />
    <circle cx="38" cy="-55" r="14" fill="#000000" opacity="0.85" />

    <!-- Crosshair / Scope Element -->
    <line x1="-190" y1="0" x2="-120" y2="0" stroke="#d4af37" stroke-width="1.5" stroke-opacity="0.6" />
    <line x1="120" y1="0" x2="190" y2="0" stroke="#d4af37" stroke-width="1.5" stroke-opacity="0.6" />
    <line x1="0" y1="-190" x2="0" y2="-120" stroke="#d4af37" stroke-width="1.5" stroke-opacity="0.6" />
    <line x1="0" y1="120" x2="0" y2="190" stroke="#d4af37" stroke-width="1.5" stroke-opacity="0.6" />
  </g>

  <!-- Subtitle Tagline -->
  <text x="400" y="740" font-family="'Cinzel', serif" font-size="14" letter-spacing="10" fill="#e5b842" text-anchor="middle" font-weight="600">SHORT FILM · ACTION COMEDY</text>

  <!-- Big Dramatic Title -->
  <text x="400" y="830" font-family="'Cinzel', 'Playfair Display', serif" font-size="78" font-weight="900" letter-spacing="16" fill="#f5f5f7" text-anchor="middle">GANGSTA</text>
  <text x="400" y="830" font-family="'Cinzel', 'Playfair Display', serif" font-size="78" font-weight="900" letter-spacing="16" fill="none" stroke="#d4af37" stroke-width="1.5" stroke-opacity="0.6" text-anchor="middle">GANGSTA</text>

  <!-- Role Badge -->
  <g transform="translate(400, 880)">
    <rect x="-140" y="-18" width="280" height="36" rx="18" fill="#181416" stroke="#d4af37" stroke-width="1.2" stroke-opacity="0.5" />
    <text x="0" y="5" font-family="'Inter', sans-serif" font-size="12" font-weight="700" letter-spacing="4" fill="#f5c518" text-anchor="middle">WRITER · ACTOR</text>
  </g>

  <!-- Synopsis Teaser -->
  <text x="400" y="945" font-family="'Inter', sans-serif" font-size="13" font-style="italic" fill="#a1a1aa" text-anchor="middle" letter-spacing="1">Three Rival Gangs · One Shared Dilemma · Chaos Unleashed</text>

  <!-- Billing Block / Technical Specs -->
  <g transform="translate(400, 1030)" opacity="0.75">
    <line x1="-300" y1="0" x2="300" y2="0" stroke="#27272f" stroke-width="1" />
    <text x="0" y="30" font-family="'Courier Prime', monospace" font-size="11" letter-spacing="3" fill="#888894" text-anchor="middle">WRITTEN &amp; PERFORMED BY SUJASH  ·  A BIGMAKERS FILM</text>
    <text x="0" y="52" font-family="'Courier Prime', monospace" font-size="10" letter-spacing="4" fill="#666675" text-anchor="middle">2.39:1 SCOPE · 4K CAPTURE · TAMIL CINEMA</text>
  </g>

  <!-- Bottom Brand -->
  <text x="400" y="1135" font-family="'Inter', sans-serif" font-size="10" font-weight="700" letter-spacing="5" fill="#d4af37" text-anchor="middle" opacity="0.8">BIGMAKERS YOUTUBE RELEASE</text>
</svg>
